<?xml version="1.0" encoding="UTF-8"?>
<svg xmlns="http://www.w3.org/2000/svg" xmlns:xlink="http://www.w3.org/1999/xlink" width="25pt" height="25pt" viewBox="0 0 100 100" version="1.1">
<g id="surface1">
<path style=" stroke:none;fill-rule:nonzero;fill:#F0F0F0;fill-opacity:1;" d="M 47.929688 5.953125 C 47.324219 5.953125 46.726563 6.078125 46.132813 6.261719 C 44.929688 6.640625 43.78125 7.355469 42.78125 8.371094 L 19.46875 31.683594 L 5.953125 31.683594 C 2.644531 31.683594 -0.0625 34.390625 -0.0625 37.699219 L -0.0625 61.507813 C -0.0625 64.816406 2.644531 67.523438 5.953125 67.523438 L 19.46875 67.523438 L 42.722656 90.648438 C 44.9375 92.875 47.78125 93.851563 50.097656 92.757813 C 52.433594 91.65625 53.570313 89.007813 53.570313 85.9375 L 53.570313 12.523438 C 53.570313 9.546875 52.050781 7.078125 49.726563 6.261719 C 49.144531 6.0625 48.535156 5.953125 47.929688 5.953125 Z M 47.992188 9.921875 C 48.191406 9.921875 48.347656 9.9375 48.488281 9.984375 C 49.054688 10.175781 49.601563 10.679688 49.601563 12.523438 L 49.601563 85.9375 C 49.601563 88.054688 48.90625 89 48.425781 89.222656 C 47.945313 89.449219 46.976563 89.472656 45.449219 87.921875 L 20.460938 62.933594 C 20.421875 62.910156 20.375 62.886719 20.335938 62.871094 C 20.484375 63.003906 19.839844 61.75 19.839844 61.011719 L 19.839844 38.195313 C 19.839844 37.457031 20.507813 36.1875 20.335938 36.335938 C 20.382813 36.296875 20.421875 36.257813 20.460938 36.210938 L 45.574219 11.160156 C 46.503906 10.222656 47.378906 9.929688 47.992188 9.921875 Z M 68.886719 24.058594 C 68.003906 24.167969 67.296875 24.855469 67.171875 25.738281 C 67.042969 26.613281 67.515625 27.476563 68.328125 27.839844 C 76.070313 32.015625 81.347656 40.171875 81.347656 49.601563 C 81.347656 59.003906 76.09375 67.179688 68.390625 71.367188 C 67.429688 71.894531 67.082031 73.101563 67.617188 74.0625 C 68.140625 75.023438 69.351563 75.375 70.3125 74.839844 C 79.257813 69.980469 85.316406 60.484375 85.316406 49.601563 C 85.316406 38.691406 79.242188 29.15625 70.25 24.304688 C 69.894531 24.105469 69.484375 24.019531 69.074219 24.058594 C 69.011719 24.058594 68.949219 24.058594 68.886719 24.058594 Z M 5.953125 35.777344 L 16.246094 35.777344 C 15.988281 36.535156 15.871094 37.363281 15.871094 38.195313 L 15.871094 61.011719 C 15.871094 61.839844 15.996094 62.664063 16.246094 63.429688 L 5.953125 63.429688 C 4.882813 63.429688 4.03125 62.578125 4.03125 61.507813 L 4.03125 37.699219 C 4.03125 36.628906 4.882813 35.777344 5.953125 35.777344 Z M 60.578125 36.519531 C 59.617188 36.636719 58.886719 37.425781 58.839844 38.394531 C 58.796875 39.355469 59.445313 40.21875 60.390625 40.425781 C 64.453125 41.488281 67.460938 45.191406 67.460938 49.601563 C 67.460938 54.011719 64.453125 57.71875 60.390625 58.78125 C 59.328125 59.050781 58.695313 60.136719 58.964844 61.199219 C 59.238281 62.257813 60.320313 62.894531 61.382813 62.625 C 67.15625 61.113281 71.429688 55.828125 71.429688 49.601563 C 71.429688 43.378906 67.15625 38.09375 61.382813 36.582031 C 61.121094 36.503906 60.847656 36.488281 60.578125 36.519531 Z "/>
</g>
</svg>
