<?xml version="1.0" encoding="UTF-8"?>
<svg xmlns="http://www.w3.org/2000/svg" xmlns:xlink="http://www.w3.org/1999/xlink" width="12pt" height="12pt" viewBox="0 0 52 52" version="1.1">
<g id="surface1">
<path style=" stroke:none;fill-rule:nonzero;fill:#FF8F00;fill-opacity:1;" d="M 25.667969 2.277344 C 25.519531 2.285156 25.375 2.300781 25.238281 2.339844 C 24.613281 2.460938 24.089844 2.871094 23.820313 3.445313 L 17.417969 16.496094 L 2.894531 18.652344 C 2.175781 18.78125 1.585938 19.296875 1.371094 19.996094 C 1.144531 20.695313 1.332031 21.457031 1.847656 21.972656 L 12.25 32.191406 L 9.847656 46.59375 C 9.726563 47.328125 10.019531 48.074219 10.617188 48.519531 C 11.21875 48.957031 12.019531 49.027344 12.679688 48.6875 L 25.605469 41.855469 L 38.53125 48.6875 C 39.195313 49.027344 39.992188 48.957031 40.59375 48.519531 C 41.195313 48.074219 41.488281 47.328125 41.363281 46.59375 L 38.964844 32.191406 L 49.367188 21.972656 C 49.882813 21.457031 50.066406 20.695313 49.84375 19.996094 C 49.628906 19.296875 49.035156 18.78125 48.320313 18.652344 L 33.792969 16.496094 L 27.390625 3.445313 C 27.082031 2.761719 26.421875 2.308594 25.667969 2.277344 Z M 25.605469 8.800781 L 30.777344 19.203125 C 31.070313 19.773438 31.621094 20.167969 32.253906 20.25 L 43.765625 21.972656 L 35.453125 30.097656 C 34.976563 30.539063 34.746094 31.183594 34.839844 31.824219 L 36.808594 43.332031 L 26.53125 37.917969 C 25.953125 37.609375 25.261719 37.609375 24.683594 37.917969 L 14.402344 43.332031 L 16.375 31.824219 C 16.464844 31.183594 16.234375 30.539063 15.757813 30.097656 L 7.449219 21.972656 L 18.957031 20.25 C 19.589844 20.167969 20.144531 19.773438 20.4375 19.203125 Z "/>
</g>
</svg>
