<?xml version="1.0" encoding="UTF-8"?>
<svg xmlns="http://www.w3.org/2000/svg" xmlns:xlink="http://www.w3.org/1999/xlink" width="12pt" height="12pt" viewBox="0 0 48 48" version="1.1">
<g id="surface1">
<path style=" stroke:none;fill-rule:nonzero;fill:#D8D8D8;fill-opacity:1;" d="M 21.796875 4.203125 C 12.601563 5.203125 5.203125 12.601563 4.203125 21.601563 C 3 31.601563 9.203125 40.203125 18 43 L 18 38.398438 C 18 38.398438 17.203125 38.601563 16.203125 38.601563 C 13.398438 38.601563 12.203125 36.203125 12 34.796875 C 11.796875 34 11.398438 33.398438 10.796875 32.796875 C 10.203125 32.601563 10 32.601563 10 32.398438 C 10 32 10.601563 32 10.796875 32 C 12 32 13 33.398438 13.398438 34 C 14.398438 35.601563 15.601563 36 16.203125 36 C 17 36 17.601563 35.796875 18 35.601563 C 18.203125 34.203125 18.796875 32.796875 20 32 C 15.398438 31 12 28.398438 12 24 C 12 21.796875 13 19.601563 14.398438 18 C 14.203125 17.601563 14 16.601563 14 15.203125 C 14 14.398438 14 13.203125 14.601563 12 C 14.601563 12 17.398438 12 20.203125 14.601563 C 21.203125 14.203125 22.601563 14 24 14 C 25.398438 14 26.796875 14.203125 28 14.601563 C 30.601563 12 33.601563 12 33.601563 12 C 34 13.203125 34 14.398438 34 15.203125 C 34 16.796875 33.796875 17.601563 33.601563 18 C 35 19.601563 36 21.601563 36 24 C 36 28.398438 32.601563 31 28 32 C 29.203125 33 30 34.796875 30 36.601563 L 30 43.203125 C 38.203125 40.601563 44 33 44 24.203125 C 44 12.203125 33.796875 2.796875 21.796875 4.203125 Z "/>
</g>
</svg>
