<?xml version="1.0" encoding="UTF-8"?>
<svg xmlns="http://www.w3.org/2000/svg" xmlns:xlink="http://www.w3.org/1999/xlink" width="12pt" height="12pt" viewBox="0 0 48 48" version="1.1">
<g id="surface1">
<path style=" stroke:none;fill-rule:nonzero;fill:#D8D8D8;fill-opacity:1;" d="M 44 8 C 42.4375 8.921875 39.3125 10.1875 37.46875 10.546875 C 37.414063 10.5625 37.375 10.578125 37.320313 10.59375 C 35.695313 8.992188 33.46875 8 31 8 C 26.03125 8 22 12.03125 22 17 C 22 17.257813 21.976563 17.742188 22 18 C 15.296875 18 10.1875 14.484375 6.53125 10 C 6.132813 11 5.960938 12.578125 5.960938 14.0625 C 5.960938 16.867188 8.148438 19.617188 11.554688 21.320313 C 10.929688 21.484375 10.234375 21.601563 9.515625 21.601563 C 8.359375 21.601563 7.125 21.296875 6 20.367188 C 6 20.398438 6 20.429688 6 20.46875 C 6 24.382813 10.15625 27.046875 13.851563 27.789063 C 13.101563 28.234375 11.59375 28.28125 10.851563 28.28125 C 10.328125 28.28125 8.492188 28.039063 8 27.945313 C 9.03125 31.15625 12.734375 32.960938 16.273438 33.023438 C 13.507813 35.195313 11.585938 36 5.929688 36 L 4 36 C 7.578125 38.289063 12.132813 40 16.695313 40 C 31.554688 40 40 28.671875 40 18 C 40 17.828125 39.992188 17.46875 39.992188 17.101563 C 39.992188 17.070313 40 17.03125 40 17 C 40 16.945313 39.984375 16.890625 39.984375 16.835938 C 39.976563 16.5625 39.96875 16.3125 39.96875 16.179688 C 41.546875 15.039063 42.914063 13.617188 44 12 C 42.546875 12.640625 40.992188 13.070313 39.359375 13.273438 C 41.03125 12.273438 43.398438 9.882813 44 8 Z "/>
</g>
</svg>
